<mxfile host="app.diagrams.net" modified="2024-07-09T06:10:50.254Z" agent="Mozilla/5.0 (Macintosh; Intel Mac OS X 10_15_7) AppleWebKit/537.36 (KHTML, like Gecko) Chrome/126.0.0.0 Safari/537.36" etag="kw2PuxC6xFVoWFkT9eEN" version="24.6.3" type="github">
  <diagram name="第 1 页" id="jMJ3dYxYcZpqBjAvDjc6">
    <mxGraphModel dx="1028" dy="2000" grid="1" gridSize="10" guides="1" tooltips="1" connect="1" arrows="1" fold="1" page="1" pageScale="1" pageWidth="827" pageHeight="1169" math="0" shadow="0">
      <root>
        <mxCell id="0" />
        <mxCell id="1" parent="0" />
        <mxCell id="Fk9Is4CcDEw4YyOU3Hcw-2" value="私域机构/平台" style="labelPosition=center;verticalLabelPosition=middle;align=center;html=1;shape=mxgraph.basic.button;dx=10;whiteSpace=wrap;sketch=1;hachureGap=4;jiggle=2;curveFitting=1;fontFamily=Architects Daughter;fontSource=https%3A%2F%2Ffonts.googleapis.com%2Fcss%3Ffamily%3DArchitects%2BDaughter;" vertex="1" parent="1">
          <mxGeometry x="324" y="260" width="100" height="60" as="geometry" />
        </mxCell>
        <mxCell id="Fk9Is4CcDEw4YyOU3Hcw-3" value="卖药机构" style="labelPosition=center;verticalLabelPosition=middle;align=center;html=1;shape=mxgraph.basic.button;dx=10;whiteSpace=wrap;sketch=1;hachureGap=4;jiggle=2;curveFitting=1;fontFamily=Architects Daughter;fontSource=https%3A%2F%2Ffonts.googleapis.com%2Fcss%3Ffamily%3DArchitects%2BDaughter;" vertex="1" parent="1">
          <mxGeometry x="684" y="260" width="100" height="60" as="geometry" />
        </mxCell>
        <mxCell id="Fk9Is4CcDEw4YyOU3Hcw-4" value="&lt;div&gt;&lt;br&gt;&lt;/div&gt;&lt;div&gt;医生&lt;/div&gt;" style="shape=actor;whiteSpace=wrap;html=1;sketch=1;hachureGap=4;jiggle=2;curveFitting=1;fontFamily=Architects Daughter;fontSource=https%3A%2F%2Ffonts.googleapis.com%2Fcss%3Ffamily%3DArchitects%2BDaughter;" vertex="1" parent="1">
          <mxGeometry x="494" y="260" width="50" height="60" as="geometry" />
        </mxCell>
        <mxCell id="Fk9Is4CcDEw4YyOU3Hcw-7" style="edgeStyle=orthogonalEdgeStyle;rounded=0;sketch=1;hachureGap=4;jiggle=2;curveFitting=1;orthogonalLoop=1;jettySize=auto;html=1;exitX=0.1;exitY=0.5;exitDx=0;exitDy=0;exitPerimeter=0;fontFamily=Architects Daughter;fontSource=https%3A%2F%2Ffonts.googleapis.com%2Fcss%3Ffamily%3DArchitects%2BDaughter;entryX=1.01;entryY=0.517;entryDx=0;entryDy=0;entryPerimeter=0;" edge="1" parent="1" source="Fk9Is4CcDEw4YyOU3Hcw-4" target="Fk9Is4CcDEw4YyOU3Hcw-2">
          <mxGeometry relative="1" as="geometry">
            <mxPoint x="404" y="260" as="targetPoint" />
          </mxGeometry>
        </mxCell>
        <mxCell id="Fk9Is4CcDEw4YyOU3Hcw-9" value="自有/共享" style="edgeLabel;html=1;align=center;verticalAlign=middle;resizable=0;points=[];sketch=1;hachureGap=4;jiggle=2;curveFitting=1;fontFamily=Architects Daughter;fontSource=https%3A%2F%2Ffonts.googleapis.com%2Fcss%3Ffamily%3DArchitects%2BDaughter;" vertex="1" connectable="0" parent="Fk9Is4CcDEw4YyOU3Hcw-7">
          <mxGeometry x="0.5328" y="3" relative="1" as="geometry">
            <mxPoint x="17" y="16" as="offset" />
          </mxGeometry>
        </mxCell>
        <mxCell id="Fk9Is4CcDEw4YyOU3Hcw-10" value="&lt;div&gt;&lt;br&gt;&lt;/div&gt;&lt;div&gt;&lt;br&gt;&lt;/div&gt;&lt;div&gt;&lt;br&gt;&lt;/div&gt;&lt;div&gt;购药订单&lt;/div&gt;" style="strokeWidth=2;html=1;shape=mxgraph.lean_mapping.orders;overflow=fill;sketch=1;hachureGap=4;jiggle=2;curveFitting=1;fontFamily=Architects Daughter;fontSource=https%3A%2F%2Ffonts.googleapis.com%2Fcss%3Ffamily%3DArchitects%2BDaughter;" vertex="1" parent="1">
          <mxGeometry x="154" y="260" width="100" height="60" as="geometry" />
        </mxCell>
        <mxCell id="Fk9Is4CcDEw4YyOU3Hcw-12" style="edgeStyle=orthogonalEdgeStyle;rounded=0;sketch=1;hachureGap=4;jiggle=2;curveFitting=1;orthogonalLoop=1;jettySize=auto;html=1;exitX=0.5;exitY=0;exitDx=0;exitDy=0;entryX=0.5;entryY=1;entryDx=0;entryDy=0;fontFamily=Architects Daughter;fontSource=https%3A%2F%2Ffonts.googleapis.com%2Fcss%3Ffamily%3DArchitects%2BDaughter;" edge="1" parent="1" source="Fk9Is4CcDEw4YyOU3Hcw-11" target="Fk9Is4CcDEw4YyOU3Hcw-10">
          <mxGeometry relative="1" as="geometry" />
        </mxCell>
        <mxCell id="Fk9Is4CcDEw4YyOU3Hcw-11" value="&lt;div&gt;&lt;br&gt;&lt;/div&gt;&lt;div&gt;患者&lt;/div&gt;" style="shape=actor;whiteSpace=wrap;html=1;sketch=1;hachureGap=4;jiggle=2;curveFitting=1;fontFamily=Architects Daughter;fontSource=https%3A%2F%2Ffonts.googleapis.com%2Fcss%3Ffamily%3DArchitects%2BDaughter;" vertex="1" parent="1">
          <mxGeometry x="44" y="270" width="50" height="60" as="geometry" />
        </mxCell>
        <mxCell id="Fk9Is4CcDEw4YyOU3Hcw-13" style="edgeStyle=orthogonalEdgeStyle;rounded=0;sketch=1;hachureGap=4;jiggle=2;curveFitting=1;orthogonalLoop=1;jettySize=auto;html=1;exitX=0.5;exitY=0;exitDx=0;exitDy=0;entryX=0.5;entryY=1.05;entryDx=0;entryDy=0;entryPerimeter=0;fontFamily=Architects Daughter;fontSource=https%3A%2F%2Ffonts.googleapis.com%2Fcss%3Ffamily%3DArchitects%2BDaughter;" edge="1" parent="1" source="Fk9Is4CcDEw4YyOU3Hcw-10" target="Fk9Is4CcDEw4YyOU3Hcw-2">
          <mxGeometry relative="1" as="geometry" />
        </mxCell>
        <mxCell id="Fk9Is4CcDEw4YyOU3Hcw-15" style="edgeStyle=orthogonalEdgeStyle;rounded=0;sketch=1;hachureGap=4;jiggle=2;curveFitting=1;orthogonalLoop=1;jettySize=auto;html=1;exitX=0.9;exitY=0.5;exitDx=0;exitDy=0;exitPerimeter=0;entryX=0.02;entryY=0.5;entryDx=0;entryDy=0;entryPerimeter=0;fontFamily=Architects Daughter;fontSource=https%3A%2F%2Ffonts.googleapis.com%2Fcss%3Ffamily%3DArchitects%2BDaughter;" edge="1" parent="1" source="Fk9Is4CcDEw4YyOU3Hcw-4" target="Fk9Is4CcDEw4YyOU3Hcw-3">
          <mxGeometry relative="1" as="geometry" />
        </mxCell>
        <mxCell id="Fk9Is4CcDEw4YyOU3Hcw-16" value="开方" style="edgeLabel;html=1;align=center;verticalAlign=middle;resizable=0;points=[];sketch=1;hachureGap=4;jiggle=2;curveFitting=1;fontFamily=Architects Daughter;fontSource=https%3A%2F%2Ffonts.googleapis.com%2Fcss%3Ffamily%3DArchitects%2BDaughter;" vertex="1" connectable="0" parent="Fk9Is4CcDEw4YyOU3Hcw-15">
          <mxGeometry x="-0.0612" y="-2" relative="1" as="geometry">
            <mxPoint as="offset" />
          </mxGeometry>
        </mxCell>
        <mxCell id="Fk9Is4CcDEw4YyOU3Hcw-25" value="私域机构/平台" style="labelPosition=center;verticalLabelPosition=middle;align=center;html=1;shape=mxgraph.basic.button;dx=10;whiteSpace=wrap;sketch=1;hachureGap=4;jiggle=2;curveFitting=1;fontFamily=Architects Daughter;fontSource=https%3A%2F%2Ffonts.googleapis.com%2Fcss%3Ffamily%3DArchitects%2BDaughter;" vertex="1" parent="1">
          <mxGeometry x="470" y="100" width="100" height="60" as="geometry" />
        </mxCell>
        <mxCell id="Fk9Is4CcDEw4YyOU3Hcw-26" value="&lt;div&gt;&lt;br&gt;&lt;/div&gt;&lt;div&gt;&lt;br&gt;&lt;/div&gt;&lt;div&gt;&lt;br&gt;&lt;/div&gt;&lt;div&gt;购药订单&lt;/div&gt;" style="strokeWidth=2;html=1;shape=mxgraph.lean_mapping.orders;overflow=fill;sketch=1;hachureGap=4;jiggle=2;curveFitting=1;fontFamily=Architects Daughter;fontSource=https%3A%2F%2Ffonts.googleapis.com%2Fcss%3Ffamily%3DArchitects%2BDaughter;" vertex="1" parent="1">
          <mxGeometry x="260" y="100" width="100" height="60" as="geometry" />
        </mxCell>
        <mxCell id="Fk9Is4CcDEw4YyOU3Hcw-27" style="edgeStyle=orthogonalEdgeStyle;rounded=0;sketch=1;hachureGap=4;jiggle=2;curveFitting=1;orthogonalLoop=1;jettySize=auto;html=1;exitX=0.5;exitY=0;exitDx=0;exitDy=0;entryX=0.5;entryY=1;entryDx=0;entryDy=0;fontFamily=Architects Daughter;fontSource=https%3A%2F%2Ffonts.googleapis.com%2Fcss%3Ffamily%3DArchitects%2BDaughter;" edge="1" parent="1" source="Fk9Is4CcDEw4YyOU3Hcw-28" target="Fk9Is4CcDEw4YyOU3Hcw-26">
          <mxGeometry relative="1" as="geometry" />
        </mxCell>
        <mxCell id="Fk9Is4CcDEw4YyOU3Hcw-28" value="&lt;div&gt;&lt;br&gt;&lt;/div&gt;&lt;div&gt;患者&lt;/div&gt;" style="shape=actor;whiteSpace=wrap;html=1;sketch=1;hachureGap=4;jiggle=2;curveFitting=1;fontFamily=Architects Daughter;fontSource=https%3A%2F%2Ffonts.googleapis.com%2Fcss%3Ffamily%3DArchitects%2BDaughter;" vertex="1" parent="1">
          <mxGeometry x="50" y="100" width="50" height="60" as="geometry" />
        </mxCell>
        <mxCell id="Fk9Is4CcDEw4YyOU3Hcw-29" style="edgeStyle=orthogonalEdgeStyle;rounded=0;sketch=1;hachureGap=4;jiggle=2;curveFitting=1;orthogonalLoop=1;jettySize=auto;html=1;exitX=0.5;exitY=0;exitDx=0;exitDy=0;entryX=0.5;entryY=1.05;entryDx=0;entryDy=0;entryPerimeter=0;fontFamily=Architects Daughter;fontSource=https%3A%2F%2Ffonts.googleapis.com%2Fcss%3Ffamily%3DArchitects%2BDaughter;" edge="1" parent="1" source="Fk9Is4CcDEw4YyOU3Hcw-26" target="Fk9Is4CcDEw4YyOU3Hcw-25">
          <mxGeometry relative="1" as="geometry">
            <Array as="points">
              <mxPoint x="310" y="80" />
              <mxPoint x="415" y="80" />
              <mxPoint x="415" y="180" />
              <mxPoint x="520" y="180" />
            </Array>
          </mxGeometry>
        </mxCell>
        <mxCell id="Fk9Is4CcDEw4YyOU3Hcw-31" value="&lt;div&gt;&lt;br&gt;&lt;/div&gt;&lt;div&gt;医生&lt;/div&gt;" style="shape=actor;whiteSpace=wrap;html=1;sketch=1;hachureGap=4;jiggle=2;curveFitting=1;fontFamily=Architects Daughter;fontSource=https%3A%2F%2Ffonts.googleapis.com%2Fcss%3Ffamily%3DArchitects%2BDaughter;" vertex="1" parent="1">
          <mxGeometry x="280" y="-60" width="50" height="60" as="geometry" />
        </mxCell>
        <mxCell id="Fk9Is4CcDEw4YyOU3Hcw-32" style="edgeStyle=orthogonalEdgeStyle;rounded=0;sketch=1;hachureGap=4;jiggle=2;curveFitting=1;orthogonalLoop=1;jettySize=auto;html=1;exitX=0.9;exitY=0.5;exitDx=0;exitDy=0;exitPerimeter=0;entryX=0.46;entryY=0.017;entryDx=0;entryDy=0;entryPerimeter=0;fontFamily=Architects Daughter;fontSource=https%3A%2F%2Ffonts.googleapis.com%2Fcss%3Ffamily%3DArchitects%2BDaughter;" edge="1" parent="1" source="Fk9Is4CcDEw4YyOU3Hcw-31" target="Fk9Is4CcDEw4YyOU3Hcw-25">
          <mxGeometry relative="1" as="geometry" />
        </mxCell>
        <mxCell id="Fk9Is4CcDEw4YyOU3Hcw-33" value="开方" style="edgeLabel;html=1;align=center;verticalAlign=middle;resizable=0;points=[];sketch=1;hachureGap=4;jiggle=2;curveFitting=1;fontFamily=Architects Daughter;fontSource=https%3A%2F%2Ffonts.googleapis.com%2Fcss%3Ffamily%3DArchitects%2BDaughter;" vertex="1" connectable="0" parent="Fk9Is4CcDEw4YyOU3Hcw-32">
          <mxGeometry x="-0.2237" y="-2" relative="1" as="geometry">
            <mxPoint as="offset" />
          </mxGeometry>
        </mxCell>
        <mxCell id="Fk9Is4CcDEw4YyOU3Hcw-34" value="&lt;div style=&quot;&quot;&gt;&lt;span style=&quot;background-color: initial;&quot;&gt;取私域机构自营比例&lt;/span&gt;&lt;/div&gt;&lt;div style=&quot;&quot;&gt;&lt;span style=&quot;background-color: initial;&quot;&gt;私域机构、医生、平台&lt;/span&gt;&lt;/div&gt;" style="outlineConnect=0;gradientColor=none;html=1;whiteSpace=wrap;fontSize=12;fontStyle=0;strokeColor=#FF9900;fillColor=none;verticalAlign=top;align=center;fontColor=#FF9900;dashed=0;spacingTop=3;sketch=1;hachureGap=4;jiggle=2;curveFitting=1;fontFamily=Architects Daughter;fontSource=https%3A%2F%2Ffonts.googleapis.com%2Fcss%3Ffamily%3DArchitects%2BDaughter;" vertex="1" parent="1">
          <mxGeometry x="620" y="100" width="130" height="40" as="geometry" />
        </mxCell>
        <mxCell id="Fk9Is4CcDEw4YyOU3Hcw-36" value="&lt;div style=&quot;&quot;&gt;&lt;span style=&quot;background-color: initial;&quot;&gt;取卖药机构自营比例&lt;/span&gt;&lt;/div&gt;&lt;div style=&quot;&quot;&gt;卖药机构、医生、平台&lt;/div&gt;" style="outlineConnect=0;gradientColor=none;html=1;whiteSpace=wrap;fontSize=12;fontStyle=0;strokeColor=#FF9900;fillColor=none;verticalAlign=top;align=center;fontColor=#FF9900;dashed=0;spacingTop=3;sketch=1;hachureGap=4;jiggle=2;curveFitting=1;fontFamily=Architects Daughter;fontSource=https%3A%2F%2Ffonts.googleapis.com%2Fcss%3Ffamily%3DArchitects%2BDaughter;" vertex="1" parent="1">
          <mxGeometry x="644" y="380" width="130" height="40" as="geometry" />
        </mxCell>
        <mxCell id="Fk9Is4CcDEw4YyOU3Hcw-49" value="" style="line;strokeWidth=2;html=1;sketch=1;hachureGap=4;jiggle=2;curveFitting=1;fontFamily=Architects Daughter;fontSource=https%3A%2F%2Ffonts.googleapis.com%2Fcss%3Ffamily%3DArchitects%2BDaughter;" vertex="1" parent="1">
          <mxGeometry x="50" y="210" width="760" height="10" as="geometry" />
        </mxCell>
      </root>
    </mxGraphModel>
  </diagram>
</mxfile>
